PathFileType	4	(x/y/z)	S05_P20_T18
DataRate	CameraRate	NumFrames	NumMarkers	Units	OrigDataRate	OrigDataStartFrame	OrigNumFrames
240	240	4	50	mm	240	44	351
Frame#	Time	Sternum			R.Acromium			L.Acromium			Top.Head			R.ASIS			L.ASIS			R.PSIS			L.PSIS			R.Great.Tro			L.Great.Tro			R.Iliac.Crest			L.Iliac.Crest			V.Sacral			R.Thigh.Upper.Post			R.Thigh.Lower.Ant			R.Thigh.Lower.Post			R.Thigh.Upper.Ant			R.Knee.Lat			R.Knee.Med			R.Shank.Upper.Post			R.Shank.Lower.Ant			R.Shank.Lower.Post			R.Shank.Upper.Ant			R.Ankle.Lat			R.Ankle.Med			R.Heel.Upper			R.Heel.Med			R.Heel.Lat			R.Toe.Lat			R.Toe.Med			R.Toe.Tip			L.Thigh.Upper.Post			L.Thigh.Lower.Ant			L.Thigh.Lower.Post			L.Thigh.Upper.Ant			L.Knee.Lat			L.Shank.Upper.Post			L.Shank.Lower.Ant			L.Shank.Lower.Post			L.Shank.Upper.Ant			L.Ankle.Lat			L.Ankle.Med			L.Heel.Upper			L.Heel.Med			L.Heel.Lat			L.Toe.Lat			L.Toe.Med			L.Toe.Tip			Cervical.Spine			Back			
		X1	Y1	Z1	X2	Y2	Z2	X3	Y3	Z3	X4	Y4	Z4	X5	Y5	Z5	X6	Y6	Z6	X7	Y7	Z7	X8	Y8	Z8	X9	Y9	Z9	X10	Y10	Z10	X11	Y11	Z11	X12	Y12	Z12	X13	Y13	Z13	X14	Y14	Z14	X15	Y15	Z15	X16	Y16	Z16	X17	Y17	Z17	X18	Y18	Z18	X19	Y19	Z19	X20	Y20	Z20	X21	Y21	Z21	X22	Y22	Z22	X23	Y23	Z23	X24	Y24	Z24	X25	Y25	Z25	X26	Y26	Z26	X27	Y27	Z27	X28	Y28	Z28	X29	Y29	Z29	X30	Y30	Z30	X31	Y31	Z31	X32	Y32	Z32	X33	Y33	Z33	X34	Y34	Z34	X35	Y35	Z35	X36	Y36	Z36	X37	Y37	Z37	X38	Y38	Z38	X39	Y39	Z39	X40	Y40	Z40	X41	Y41	Z41	X42	Y42	Z42	X43	Y43	Z43	X44	Y44	Z44	X45	Y45	Z45	X46	Y46	Z46	X47	Y47	Z47	X48	Y48	Z48	X49	Y49	Z49	X50	Y50	Z50	

44	0.17917	-1154.8	1248.2	298.22	-1243.4	1523.4	439.84	-1257	1525.1	118.65	-1253.9	1813.9	254.94	-1241.7	992.34	430.86	NaN	NaN	NaN	-1438.8	1015.7	329.57	-1429.5	1020.5	237.79	-1330.2	911.02	485.22	-1294.8	929.44	97.814	-1333.6	1078.4	463.21	-1307.9	1083.1	128.99	-1446.2	982.4	293.94	-1252.8	690.72	495.68	-1186	622.6	449.7	-1240.9	599.64	480.37	-1185.8	712.42	468.87	-1255.2	508.56	464.95	-1233.8	486.95	331.96	-1474.1	412.9	431.79	-1489.9	324.45	428.92	-1532.2	366.7	409.97	-1425	368.05	448.81	-1586.6	278.3	403.98	-1540.8	279.92	321.09	-1647.9	303.52	331.36	-1660.7	277.59	300.61	-1673.3	282.3	364.32	-1605.7	135.76	430.01	-1557.5	110.77	319.66	NaN	NaN	NaN	-1242.2	692.95	109.46	-1147.1	639.46	134.21	-1212.9	603.96	128.35	-1169.5	725.91	115.49	-1179.4	520.11	136.27	-1233.2	316.62	141.77	-1162.8	261.77	148.3	-1232.3	245.11	161.36	-1167.8	330.86	133.34	-1199.8	110.9	175.21	-1164.3	130.32	259.53	-1253.4	64.465	231.74	-1240.6	41.212	264.79	-1253.6	38.278	205.05	-1075	39.163	138.82	-1045.2	55.572	255.78	-985.43	66.977	196.49	-1303.1	1558.1	285.01	-1427.9	1286.3	295.69
45	0.18333	-1149.4	1248.7	297.98	-1237.3	1524	439.47	-1251.1	1525.8	118.32	-1248	1814.6	254.43	-1237	993.28	430.32	NaN	NaN	NaN	-1433.5	1016.4	329.47	-1424.4	1021.3	237.68	-1324.2	911.74	484.98	-1290.2	930.1	97.499	-1328.1	1079.1	462.89	-1303	1083.8	128.65	-1441	983.12	293.83	-1244.2	692.34	495.28	-1176.5	625.24	449.13	-1232	601.51	479.86	-1177.2	714.82	467.44	-1243.8	510.09	464.63	-1223.3	489.27	331.55	-1462.6	414.25	431.05	-1478.3	325.81	428.28	-1520.9	368.26	409.37	-1413.5	369.57	448.16	-1574.8	279.55	403.26	-1529.1	281.41	320.16	-1636.5	304.21	330.53	-1649.2	278.07	299.87	-1661.8	282.95	363.56	-1592.8	137.23	429.48	-1544.7	112.22	319.12	NaN	NaN	NaN	-1238.8	693.32	109.2	-1144	639.28	133.83	-1209.9	604.19	128.11	-1165.8	725.86	115.01	-1176.9	520.12	136.06	-1231.9	316.91	141.81	-1161.8	261.68	148.19	-1231.4	245.41	161.44	-1166.5	330.75	133.19	-1199.6	111.03	175.25	-1164	130.31	259.58	-1253.4	64.564	231.79	-1240.6	41.255	264.81	-1253.6	38.396	205.06	-1075	39.116	138.8	-1045.1	55.402	255.8	-985.34	66.7	196.5	-1297.2	1558.8	284.66	-1422.4	1287.2	295.27
46	0.1875	-1144	1249.2	297.74	-1231.2	1524.7	439.12	-1245.2	1526.4	118.02	-1242.1	1815.3	253.97	-1232.1	994.25	429.77	NaN	NaN	NaN	-1428.3	1017.1	329.38	-1419.3	1022.1	237.59	-1318.2	912.53	484.75	-1285.7	930.76	97.202	-1322.6	1079.9	462.58	-1298	1084.5	128.32	-1435.9	983.89	293.74	-1235.5	694.03	494.87	-1166.9	627.97	448.53	-1222.9	603.46	479.31	-1168.7	717.29	466.11	-1232.5	511.73	464.26	-1212.6	491.67	331.12	-1451	415.4	430.28	-1466.5	326.96	427.62	-1509.5	369.49	408.74	-1401.9	370.95	447.49	-1562.7	280.43	402.53	-1517.3	282.62	319.2	-1625.1	304.47	329.73	-1637.6	278.09	299.14	-1650.2	283.11	362.82	-1579.4	138.3	428.9	-1531.4	113.41	318.48	NaN	NaN	NaN	-1235.5	693.7	108.97	-1141.1	639.1	133.48	-1207.1	604.42	127.89	-1162.3	725.8	114.55	-1174.6	520.13	135.88	-1230.7	317.2	141.88	-1160.9	261.59	148.09	-1230.5	245.71	161.54	-1165.2	330.66	133.05	-1199.5	111.15	175.3	-1163.8	130.31	259.64	-1253.4	64.677	231.86	-1240.6	41.304	264.83	-1253.5	38.522	205.06	-1074.9	39.069	138.78	-1045.1	55.234	255.82	-985.25	66.431	196.51	-1291.4	1559.6	284.33	-1416.9	1288.1	294.85
47	0.19167	-1138.6	1249.7	297.5	-1225.2	1525.3	438.79	-1239.3	1527.1	117.74	-1236.2	1816	253.55	-1227	995.27	429.21	NaN	NaN	NaN	-1423.1	1017.9	329.3	-1414.3	1022.9	237.51	-1312.2	913.38	484.55	-1281.1	931.42	96.922	-1317.1	1080.8	462.25	-1293.1	1085.3	127.99	-1430.8	984.7	293.67	-1226.5	695.81	494.45	-1157.3	630.76	447.92	-1213.9	605.49	478.72	-1160.4	719.82	464.88	-1221.4	513.47	463.85	-1201.8	494.13	330.67	-1439.4	416.34	429.49	-1454.6	327.89	426.95	-1498	370.4	408.09	-1390.2	372.19	446.79	-1550.3	280.91	401.8	-1505.3	283.55	318.23	-1613.5	304.29	328.96	-1625.8	277.67	298.43	-1638.4	282.79	362.08	-1565.7	138.96	428.25	-1517.8	114.32	317.75	NaN	NaN	NaN	-1232.2	694.07	108.77	-1138.1	638.91	133.16	-1204.3	604.66	127.69	-1158.8	725.74	114.12	-1172.3	520.13	135.72	-1229.6	317.48	141.97	-1160	261.52	147.99	-1229.7	246.01	161.65	-1164	330.59	132.92	-1199.3	111.28	175.35	-1163.5	130.32	259.71	-1253.4	64.807	231.93	-1240.6	41.362	264.85	-1253.5	38.656	205.07	-1074.9	39.025	138.76	-1045.1	55.07	255.83	-985.16	66.169	196.52	-1285.6	1560.4	284.02	-1411.4	1289	294.45
